<svg width="24" height="24" viewBox="0 0 24 24" fill="none" xmlns="http://www.w3.org/2000/svg">
<rect width="24" height="24" rx="8" fill="#276FE0"/>
<circle cx="12" cy="12" r="8" fill="white"/>
<path d="M10.518 16.426C10.6953 16.3887 10.8307 16.3467 10.924 16.3C11.0267 16.2533 11.134 16.1787 11.246 16.076V12.044C11.246 11.708 11.1807 11.4793 11.05 11.358C10.9287 11.2273 10.7047 11.1527 10.378 11.134L10.42 10.588C10.56 10.56 10.812 10.518 11.176 10.462C12.1747 10.294 12.7767 10.1773 12.982 10.112L13.22 10.238V16.076C13.4533 16.2533 13.752 16.3793 14.116 16.454L14.06 17H10.462L10.518 16.426ZM12.1 9.27201C11.7267 9.27201 11.4467 9.18801 11.26 9.02001C11.0733 8.85201 10.98 8.60935 10.98 8.29201C10.98 7.63868 11.3533 7.31201 12.1 7.31201C12.464 7.31201 12.7393 7.39601 12.926 7.56401C13.1127 7.73201 13.206 7.97468 13.206 8.29201C13.206 8.60935 13.1127 8.85201 12.926 9.02001C12.7393 9.18801 12.464 9.27201 12.1 9.27201Z" fill="#276FE0"/>
</svg>
