<svg width="24" height="21" viewBox="0 0 24 21" fill="none" xmlns="http://www.w3.org/2000/svg">
<path d="M15 8.5C15 10.1569 13.6569 11.5 12 11.5C10.3431 11.5 9 10.1569 9 8.5C9 6.84315 10.3431 5.5 12 5.5C13.6569 5.5 15 6.84315 15 8.5Z" fill="#42E8E0"/>
<path fill-rule="evenodd" clip-rule="evenodd" d="M7.03556 3.56496L3.5 0.0294189C1.33704 2.19983 0 5.19376 0 8.49997C0 15.1274 5.37256 20.5 12 20.5C18.6274 20.5 24 15.1274 24 8.49997C24 5.17877 22.6508 2.17273 20.4706 0L16.935 3.53554C18.2104 4.80344 19 6.5595 19 8.49997C19 12.366 15.866 15.5 12 15.5C8.13401 15.5 5 12.366 5 8.49997C5 6.57446 5.77744 4.83053 7.03556 3.56496Z" fill="#F7F7FA"/>
</svg>
