<svg width="19" height="19" viewBox="0 0 19 19" fill="none" xmlns="http://www.w3.org/2000/svg">
<g clip-path="url(#clip0)">
<path d="M13.5909 6.28571H17V7.71429H13.5909V6.28571ZM12.2273 9.85714H17V11.2857H12.2273V9.85714ZM14.2727 13.4286H17V14.8571H14.2727V13.4286ZM2 17C2 15.4845 2.57467 14.031 3.5976 12.9594C4.62053 11.8878 6.00791 11.2857 7.45455 11.2857C8.90118 11.2857 10.2886 11.8878 11.3115 12.9594C12.3344 14.031 12.9091 15.4845 12.9091 17H11.5455C11.5455 15.8634 11.1144 14.7733 10.3473 13.9695C9.58006 13.1658 8.53952 12.7143 7.45455 12.7143C6.36957 12.7143 5.32903 13.1658 4.56184 13.9695C3.79464 14.7733 3.36364 15.8634 3.36364 17H2ZM7.45455 10.5714C5.19432 10.5714 3.36364 8.65357 3.36364 6.28571C3.36364 3.91786 5.19432 2 7.45455 2C9.71477 2 11.5455 3.91786 11.5455 6.28571C11.5455 8.65357 9.71477 10.5714 7.45455 10.5714ZM7.45455 9.14286C8.96136 9.14286 10.1818 7.86429 10.1818 6.28571C10.1818 4.70714 8.96136 3.42857 7.45455 3.42857C5.94773 3.42857 4.72727 4.70714 4.72727 6.28571C4.72727 7.86429 5.94773 9.14286 7.45455 9.14286Z" fill="#F7F7FA"/>
</g>
<defs>
<clipPath id="clip0">
<rect width="19" height="19" fill="white"/>
</clipPath>
</defs>
</svg>
