<svg width="20" height="20" viewBox="0 0 20 20" fill="none" xmlns="http://www.w3.org/2000/svg">
<path d="M17.5 2.5C17.721 2.5 17.933 2.5878 18.0893 2.74408C18.2456 2.90036 18.3334 3.11232 18.3334 3.33333V16.6667C18.3334 16.8877 18.2456 17.0996 18.0893 17.2559C17.933 17.4122 17.721 17.5 17.5 17.5H2.50002C2.27901 17.5 2.06704 17.4122 1.91076 17.2559C1.75448 17.0996 1.66669 16.8877 1.66669 16.6667V3.33333C1.66669 3.11232 1.75448 2.90036 1.91076 2.74408C2.06704 2.5878 2.27901 2.5 2.50002 2.5H17.5ZM16.6667 4.16667H3.33335V15.8333H16.6667V4.16667ZM7.83252 6.66667L10.4984 13.3333H8.70252L8.36919 12.5H5.62752L5.29419 13.3333H3.49919L6.16585 6.66667H7.83252ZM15.8334 6.66667V13.3333H13.3334C12.6703 13.3333 12.0344 13.0699 11.5656 12.6011C11.0967 12.1323 10.8334 11.4964 10.8334 10.8333C10.8334 10.1703 11.0967 9.53441 11.5656 9.06557C12.0344 8.59672 12.6703 8.33333 13.3334 8.33333H14.1659L14.1667 6.66667H15.8334ZM14.1667 10H13.3334C13.121 10.0002 12.9167 10.0816 12.7622 10.2274C12.6078 10.3732 12.5148 10.5725 12.5024 10.7845C12.4899 10.9965 12.5589 11.2053 12.6952 11.3682C12.8316 11.5311 13.0249 11.6357 13.2359 11.6608L13.3334 11.6667H14.1667V10ZM6.99919 9.07083L6.29335 10.8333H7.70335L6.99919 9.07083Z" fill="#F7F7FA"/>
</svg>
