<svg width="20" height="20" viewBox="0 0 20 20" fill="none" xmlns="http://www.w3.org/2000/svg">
<path d="M5.83333 6.66668V5.00001C5.83333 3.89494 6.27232 2.83513 7.05372 2.05373C7.83512 1.27233 8.89493 0.833344 10 0.833344C11.1051 0.833344 12.1649 1.27233 12.9463 2.05373C13.7277 2.83513 14.1667 3.89494 14.1667 5.00001V6.66668H16.6667C16.8877 6.66668 17.0996 6.75447 17.2559 6.91075C17.4122 7.06703 17.5 7.279 17.5 7.50001V17.5C17.5 17.721 17.4122 17.933 17.2559 18.0893C17.0996 18.2455 16.8877 18.3333 16.6667 18.3333H3.33333C3.11232 18.3333 2.90036 18.2455 2.74408 18.0893C2.5878 17.933 2.5 17.721 2.5 17.5V7.50001C2.5 7.279 2.5878 7.06703 2.74408 6.91075C2.90036 6.75447 3.11232 6.66668 3.33333 6.66668H5.83333ZM5.83333 8.33334H4.16667V16.6667H15.8333V8.33334H14.1667V10H12.5V8.33334H7.5V10H5.83333V8.33334ZM7.5 6.66668H12.5V5.00001C12.5 4.33697 12.2366 3.70108 11.7678 3.23224C11.2989 2.7634 10.663 2.50001 10 2.50001C9.33696 2.50001 8.70107 2.7634 8.23223 3.23224C7.76339 3.70108 7.5 4.33697 7.5 5.00001V6.66668Z" fill="#F7F7FA"/>
</svg>
