<svg width="20" height="20" viewBox="0 0 20 20" fill="none" xmlns="http://www.w3.org/2000/svg">
<path d="M17.5 10.8333V16.6667C17.5 16.8877 17.4122 17.0996 17.2559 17.2559C17.0996 17.4122 16.8877 17.5 16.6667 17.5H3.33332C3.11231 17.5 2.90035 17.4122 2.74407 17.2559C2.58779 17.0996 2.49999 16.8877 2.49999 16.6667V10.8333H1.66666V9.16667L2.49999 5H17.5L18.3333 9.16667V10.8333H17.5ZM4.16666 10.8333V15.8333H15.8333V10.8333H4.16666ZM3.36666 9.16667H16.6333L16.1333 6.66667H3.86666L3.36666 9.16667ZM4.99999 11.6667H11.6667V14.1667H4.99999V11.6667ZM2.49999 2.5H17.5V4.16667H2.49999V2.5Z" fill="#F7F7FA"/>
</svg>
