<svg width="20" height="20" viewBox="0 0 20 20" fill="none" xmlns="http://www.w3.org/2000/svg">
<path d="M7.47081 15C7.37175 15.6952 7.02516 16.3314 6.49471 16.7916C5.96426 17.2518 5.28558 17.5052 4.58331 17.5052C3.88105 17.5052 3.20236 17.2518 2.67191 16.7916C2.14147 16.3314 1.79488 15.6952 1.69581 15H0.833313V4.99999C0.833313 4.77898 0.92111 4.56701 1.07739 4.41073C1.23367 4.25445 1.44563 4.16666 1.66665 4.16666H13.3333C13.5543 4.16666 13.7663 4.25445 13.9226 4.41073C14.0788 4.56701 14.1666 4.77898 14.1666 4.99999V6.66666H16.6666L19.1666 10.0467V15H17.4708C17.3717 15.6952 17.0252 16.3314 16.4947 16.7916C15.9643 17.2518 15.2856 17.5052 14.5833 17.5052C13.881 17.5052 13.2024 17.2518 12.6719 16.7916C12.1415 16.3314 11.7949 15.6952 11.6958 15H7.47081ZM12.5 5.83332H2.49998V12.5417C2.82878 12.206 3.23381 11.9547 3.68061 11.8093C4.1274 11.6638 4.60272 11.6284 5.06613 11.7062C5.52953 11.7839 5.96729 11.9724 6.34215 12.2557C6.71702 12.5391 7.01788 12.9087 7.21915 13.3333H11.9475C12.0875 13.0392 12.275 12.7717 12.5 12.5417V5.83332ZM14.1666 10.8333H17.5V10.5958L15.8266 8.33332H14.1666V10.8333ZM14.5833 15.8333C14.9149 15.8333 15.233 15.7016 15.4675 15.4671C15.702 15.2326 15.8337 14.9145 15.8337 14.5829C15.8337 14.2513 15.702 13.9332 15.4675 13.6987C15.233 13.4642 14.9149 13.3325 14.5833 13.3325C14.2517 13.3325 13.9336 13.4642 13.6991 13.6987C13.4646 13.9332 13.3329 14.2513 13.3329 14.5829C13.3329 14.9145 13.4646 15.2326 13.6991 15.4671C13.9336 15.7016 14.2517 15.8333 14.5833 15.8333ZM5.83331 14.5833C5.83331 14.4192 5.80098 14.2566 5.73816 14.105C5.67534 13.9533 5.58327 13.8155 5.4672 13.6994C5.35112 13.5834 5.21332 13.4913 5.06167 13.4285C4.91001 13.3657 4.74746 13.3333 4.58331 13.3333C4.41916 13.3333 4.25662 13.3657 4.10496 13.4285C3.9533 13.4913 3.8155 13.5834 3.69943 13.6994C3.58336 13.8155 3.49128 13.9533 3.42846 14.105C3.36564 14.2566 3.33331 14.4192 3.33331 14.5833C3.33331 14.9148 3.46501 15.2328 3.69943 15.4672C3.93385 15.7016 4.25179 15.8333 4.58331 15.8333C4.91483 15.8333 5.23278 15.7016 5.4672 15.4672C5.70162 15.2328 5.83331 14.9148 5.83331 14.5833Z" fill="#F7F7FA"/>
</svg>
