<svg width="20" height="20" viewBox="0 0 20 20" fill="none" xmlns="http://www.w3.org/2000/svg">
<path d="M2 18C2 16.3834 2.64218 14.8331 3.78525 13.69C4.92833 12.5469 6.47868 11.9048 8.09524 11.9048C9.7118 11.9048 11.2621 12.5469 12.4052 13.69C13.5483 14.8331 14.1905 16.3834 14.1905 18H12.6667C12.6667 16.7876 12.185 15.6248 11.3277 14.7675C10.4704 13.9102 9.30766 13.4286 8.09524 13.4286C6.88282 13.4286 5.72006 13.9102 4.86275 14.7675C4.00544 15.6248 3.52381 16.7876 3.52381 18H2ZM8.09524 11.1429C5.56952 11.1429 3.52381 9.09714 3.52381 6.57143C3.52381 4.04571 5.56952 2 8.09524 2C10.621 2 12.6667 4.04571 12.6667 6.57143C12.6667 9.09714 10.621 11.1429 8.09524 11.1429ZM8.09524 9.61905C9.77905 9.61905 11.1429 8.25524 11.1429 6.57143C11.1429 4.88762 9.77905 3.52381 8.09524 3.52381C6.41143 3.52381 5.04762 4.88762 5.04762 6.57143C5.04762 8.25524 6.41143 9.61905 8.09524 9.61905ZM14.4069 12.4404C15.4776 12.9226 16.3863 13.7038 17.0237 14.6901C17.6611 15.6763 18.0001 16.8257 18 18H16.4762C16.4764 17.1192 16.2221 16.2571 15.7441 15.5174C15.266 14.7777 14.5844 14.1917 13.7813 13.8301L14.4061 12.4404H14.4069ZM13.8827 3.83848C14.6503 4.15489 15.3066 4.69222 15.7684 5.38227C16.2301 6.07232 16.4765 6.88399 16.4762 7.71429C16.4765 8.75987 16.0859 9.76779 15.381 10.5401C14.6761 11.3123 13.7079 11.7931 12.6667 11.888V10.3543C13.2312 10.2734 13.7549 10.0137 14.161 9.6133C14.5671 9.21287 14.8341 8.69282 14.9228 8.12947C15.0115 7.56613 14.9173 6.98918 14.654 6.48332C14.3907 5.97745 13.9721 5.56933 13.4598 5.31886L13.8827 3.83848Z" fill="#F7F7FA"/>
</svg>
