<svg width="20" height="20" viewBox="0 0 20 20" fill="none" xmlns="http://www.w3.org/2000/svg">
<path d="M3.3333 5.34501L0.630798 2.64334L1.80997 1.46417L4.51163 4.16667H17.2133C17.3432 4.16666 17.4713 4.19702 17.5874 4.25531C17.7034 4.31361 17.8043 4.39823 17.8818 4.50242C17.9594 4.60661 18.0115 4.72749 18.034 4.85541C18.0566 4.98333 18.0489 5.11475 18.0116 5.23917L16.0116 11.9058C15.9602 12.0776 15.8547 12.2281 15.7109 12.3352C15.5671 12.4422 15.3926 12.5 15.2133 12.5H4.99997V14.1667H14.1666V15.8333H4.16663C3.94562 15.8333 3.73366 15.7455 3.57738 15.5893C3.4211 15.433 3.3333 15.221 3.3333 15V5.34501ZM4.99997 5.83334V10.8333H14.5933L16.0933 5.83334H4.99997ZM4.5833 19.1667C4.25178 19.1667 3.93384 19.035 3.69941 18.8006C3.46499 18.5661 3.3333 18.2482 3.3333 17.9167C3.3333 17.5852 3.46499 17.2672 3.69941 17.0328C3.93384 16.7984 4.25178 16.6667 4.5833 16.6667C4.91482 16.6667 5.23276 16.7984 5.46718 17.0328C5.7016 17.2672 5.8333 17.5852 5.8333 17.9167C5.8333 18.2482 5.7016 18.5661 5.46718 18.8006C5.23276 19.035 4.91482 19.1667 4.5833 19.1667ZM14.5833 19.1667C14.2518 19.1667 13.9338 19.035 13.6994 18.8006C13.465 18.5661 13.3333 18.2482 13.3333 17.9167C13.3333 17.5852 13.465 17.2672 13.6994 17.0328C13.9338 16.7984 14.2518 16.6667 14.5833 16.6667C14.9148 16.6667 15.2328 16.7984 15.4672 17.0328C15.7016 17.2672 15.8333 17.5852 15.8333 17.9167C15.8333 18.2482 15.7016 18.5661 15.4672 18.8006C15.2328 19.035 14.9148 19.1667 14.5833 19.1667Z" fill="#F7F7FA"/>
</svg>
