<svg width="20" height="20" viewBox="0 0 20 20" fill="none" xmlns="http://www.w3.org/2000/svg">
<path d="M17.5 11.035V16.6667H18.3333V18.3334H1.66665V16.6667H2.49998V11.035C1.98696 10.6926 1.56641 10.2288 1.27566 9.68482C0.984919 9.14084 0.832973 8.53349 0.833314 7.91669C0.833314 7.22752 1.01998 6.56335 1.36081 5.99752L3.62081 2.08335C3.69395 1.95667 3.79915 1.85148 3.92583 1.77834C4.0525 1.7052 4.1962 1.66669 4.34248 1.66669H15.6583C15.8046 1.66669 15.9483 1.7052 16.075 1.77834C16.2016 1.85148 16.3068 1.95667 16.38 2.08335L18.6316 5.98502C19.1288 6.81075 19.2886 7.7963 19.0778 8.7368C18.8671 9.67731 18.302 10.5004 17.5 11.035ZM15.8333 11.6434C15.2603 11.7076 14.6803 11.6388 14.1382 11.4422C13.5962 11.2457 13.1069 10.9266 12.7083 10.51C12.3585 10.8759 11.9381 11.1671 11.4727 11.3661C11.0072 11.565 10.5062 11.6676 9.99998 11.6675C9.49389 11.6678 8.99298 11.5655 8.5275 11.3668C8.06202 11.1682 7.64162 10.8773 7.29165 10.5117C6.893 10.9282 6.40363 11.247 5.86161 11.4434C5.31959 11.6399 4.73955 11.7086 4.16665 11.6442V16.6667H15.8333V11.6442V11.6434ZM4.82415 3.33335L2.79665 6.84419C2.59963 7.33097 2.59371 7.87421 2.78009 8.36517C2.96646 8.85613 3.33138 9.2586 3.8018 9.49201C4.27222 9.72543 4.81343 9.77259 5.31713 9.62403C5.82083 9.47548 6.24984 9.14219 6.51831 8.69085C6.79748 7.99335 7.78498 7.99335 8.06498 8.69085C8.2194 9.07787 8.48631 9.40969 8.83125 9.64344C9.17619 9.87719 9.5833 10.0021 9.99998 10.0021C10.4167 10.0021 10.8238 9.87719 11.1687 9.64344C11.5136 9.40969 11.7806 9.07787 11.935 8.69085C12.2141 7.99335 13.2016 7.99335 13.4816 8.69085C13.5898 8.95706 13.7518 9.19802 13.9576 9.39858C14.1634 9.59915 14.4084 9.75498 14.6773 9.85629C14.9461 9.95759 15.2331 10.0022 15.52 9.98726C15.807 9.97233 16.0877 9.8982 16.3447 9.76954C16.6016 9.64088 16.8291 9.46046 17.0129 9.23963C17.1968 9.0188 17.3329 8.76233 17.4129 8.48633C17.4928 8.21034 17.5148 7.9208 17.4774 7.6359C17.4401 7.351 17.3442 7.07691 17.1958 6.83085L15.175 3.33335H4.82498H4.82415Z" fill="#F7F7FA"/>
</svg>
