<svg width="18" height="18" viewBox="0 0 18 18" fill="none" xmlns="http://www.w3.org/2000/svg">
<path d="M9 1.025C4.60285 1.025 1.025 4.60223 1.025 9C1.025 11.7999 2.47864 14.2624 4.66619 15.685C4.73946 15.7568 4.82756 15.8056 4.91876 15.8391C6.11435 16.5549 7.50697 16.975 9 16.975C13.3978 16.975 16.975 13.3978 16.975 9C16.975 4.60223 13.3978 1.025 9 1.025ZM9.00005 15.5556C7.88548 15.555 6.83499 15.2747 5.91484 14.7816C6.10769 13.342 7.32385 12.3214 8.98779 12.3214C10.6571 12.3214 11.8751 13.3484 12.0622 14.7952C11.1477 15.2805 10.1056 15.5556 9.00005 15.5556ZM7.22732 8.7743C7.22732 7.7968 8.0225 7.00162 9 7.00162C9.9775 7.00162 10.7727 7.7968 10.7727 8.7743C10.7727 9.75178 9.9775 10.547 9 10.547C8.0225 10.547 7.22732 9.75181 7.22732 8.7743ZM15.555 9C15.555 10.9551 14.693 12.711 13.3304 13.9132C12.9681 12.7323 12.1078 11.7934 10.9534 11.2949C11.7058 10.7109 12.1927 9.79902 12.1927 8.7743C12.1927 7.01352 10.7607 5.58164 9 5.58164C7.23922 5.58164 5.80734 7.01352 5.80734 8.7743C5.80734 9.79586 6.29122 10.704 7.03925 11.2886C5.88195 11.7825 5.01767 12.7174 4.65082 13.8959C3.29943 12.6935 2.44498 10.9454 2.44498 9C2.44498 5.38612 5.38552 2.44498 9 2.44498C12.6145 2.44498 15.555 5.38612 15.555 9Z" fill="#3D4254" stroke="#3D4254" stroke-width="0.2"/>
</svg>
